<!-- source: commons.wikimedia.org (Category:SVG diagrams of US DOT hazmat symbols) | licence: public domain (work of the U.S. Government) -->
<svg xmlns="http://www.w3.org/2000/svg" viewBox="-7.036 -7.036 837.894 837.894"><path d="M412.41 820.327 4.794 412.711 412.452 5.053l407.846 407.846z" style="fill:#f7f100;fill-opacity:1;fill-rule:evenodd;stroke:#000;stroke-width:1px;stroke-linecap:butt;stroke-linejoin:miter;stroke-opacity:1"/><path d="M339.695 330.863c-8.397-13.764 4.722-69.878-16.302-91.849 12.956-1.39 20.539 7.783 24.643 14.286-3.236-29.007-4.75-32.485 6.071-53.572 10.48 20.835 14.214 21.94 18.929 21.072 1.767-4.293.725-34.397-7.857-46.429 12.437-.758 23.632 8.296 26.785 9.286 1.705-13.385-14.392-63.38 19.495-80.82-10.48 37.755 20.014 84.662 24.434 86.177 4.617-10.365 2.34-19.646 2.5-26.071 11.3 8.08 20.849 42.627 21.49 46.765 6.818-11.553 16.904-13.988 21.173-14.684-3.715 17.63-.86 43.723-7.35 58.99 6.428-4.464 12.789-9.986 22.856-9.196-25.688 14.77-3.719 44.77-13.883 89.91z" style="fill:#000;fill-opacity:1;fill-rule:evenodd;stroke:#000;stroke-width:1px;stroke-linecap:butt;stroke-linejoin:miter;stroke-opacity:1"/><path d="M475 317.005a70 70 0 1 1-140 0 70 70 0 1 1 140 0z" style="opacity:1;fill:#f7f100;fill-opacity:1;fill-rule:nonzero;stroke:#000;stroke-width:19.43801689;stroke-linecap:square;stroke-linejoin:miter;stroke-miterlimit:4;stroke-dasharray:none;stroke-dashoffset:0;stroke-opacity:1" transform="translate(36.39 22.782)scale(.92602)"/><path d="M357.857 246.603c4.019.488 5.696 6.947 5.714 8.84.02 1.994-6 12.236-9.598 12.187-2.065-.028 2.758-21.163 3.884-21.027zm26.473-21.83c.87-1.515 7.78 13.192 7.366 16.384-.7 5.41-8.982 6.557-10.49 5.982-2.24-.853-1.995-4.838-1.652-7.813.387-3.363 4.33-.357 4.776-14.553zm28.483-20.778c-.057 5.022-1.916 17.82 1.428 23.055 3.03 4.743 5.241 6.942 5.67 12.41.299 3.816-1.59 3.323-6.617 2.408-3.8-.692-10.843 4.976-10.22-11.408.187-4.898 4.39-24.044 9.738-26.465zm27.55 23.467c-3.218 1.727-7.771 4.583-8.523 11.649-.312 2.925 1.252 6.293 4.42 7.544 3.84 1.517 4.209 1.054 5.05-2.43.752-3.115-1.026-6.693-.915-9.44.136-3.425 1.23-3.44-.032-7.323zm17.962 10.165c-2.715.947-5.62 6.913-5.524 11.838.095 5.05 1.997 6.305 4.356 8.744 7.923 8.191 5.836 3.492 6.376-.253.343-2.371-1.115-6.585-2.872-9.975-1.56-3.009-2.406-5.985-2.336-10.354zm-32.23-37.06c1.791-9.691 5.673-8.501 7.45 2.746.457 2.898-6.725 17.626-7.419 5.935-.112-1.902-.52-6.034-.031-8.681z" style="fill:#f7f100;fill-opacity:1;fill-rule:evenodd;stroke:#000;stroke-width:1px;stroke-linecap:butt;stroke-linejoin:miter;stroke-opacity:1"/><path d="M412.458 53.463 53.285 412.636l359.078 359.077 359.432-359.431z" style="fill:none;fill-opacity:.75;fill-rule:evenodd;stroke:#000;stroke-width:15;stroke-linecap:butt;stroke-linejoin:miter;stroke-miterlimit:4;stroke-dasharray:none;stroke-opacity:1"/><path d="M322.998 382.915h174.17v8.802h-174.17z" style="opacity:1;fill:#000;fill-opacity:1;fill-rule:nonzero;stroke:#000;stroke-width:2;stroke-linecap:square;stroke-linejoin:miter;stroke-miterlimit:4;stroke-dasharray:none;stroke-dashoffset:0;stroke-opacity:1"/><text xml:space="preserve" x="416.406" y="478.143" style="font-size:48px;font-style:normal;font-variant:normal;font-weight:700;font-stretch:normal;text-align:center;line-height:125%;writing-mode:lr-tb;text-anchor:middle;fill:#000;fill-opacity:1;stroke:none;stroke-width:1px;stroke-linecap:butt;stroke-linejoin:miter;stroke-opacity:1;font-family:Arial"><tspan x="416.406" y="478.143" style="font-size:48px;font-style:normal;font-variant:normal;font-weight:700;font-stretch:normal;text-align:center;line-height:125%;writing-mode:lr-tb;text-anchor:middle;font-family:Arial">OXIDIZER</tspan></text><text xml:space="preserve" x="411.719" y="710.175" style="font-size:12px;font-style:normal;font-weight:400;text-align:center;line-height:125%;text-anchor:middle;fill:#000;fill-opacity:1;stroke:none;stroke-width:1px;stroke-linecap:butt;stroke-linejoin:miter;stroke-opacity:1;font-family:Bitstream Vera Sans"><tspan x="411.719" y="710.175" style="font-size:84px;font-style:normal;font-variant:normal;font-weight:700;font-stretch:normal;text-align:center;line-height:125%;writing-mode:lr-tb;text-anchor:middle;font-family:Arial">5.1</tspan></text></svg>